<?xml version="1.0" standalone="no"?>
<!DOCTYPE svg PUBLIC "-//W3C//DTD SVG 20010904//EN"
 "http://www.w3.org/TR/2001/REC-SVG-20010904/DTD/svg10.dtd">
<svg version="1.0" xmlns="http://www.w3.org/2000/svg"
 width="1065.000000pt" height="450.000000pt" viewBox="0 0 1065.000000 450.000000"
 preserveAspectRatio="xMidYMid meet">

<g transform="translate(0.000000,450.000000) scale(0.100000,-0.100000)"
fill="#000000" stroke="none">
<path d="M8855 3971 c-69 -33 -147 -108 -170 -165 -19 -45 -31 -161 -21 -202
l8 -29 13 25 14 25 1 -25 c1 -25 1 -25 10 -3 22 54 177 118 272 111 52 -4 61
-9 108 -52 39 -37 56 -47 73 -42 12 3 28 6 35 6 6 0 12 8 12 18 0 31 18 -8 31
-66 13 -63 31 -64 41 -2 9 52 23 69 40 52 22 -22 26 -13 33 61 6 66 4 77 -20
125 -19 38 -37 58 -62 70 -19 9 -50 31 -69 48 -58 55 -110 74 -205 74 -72 0
-92 -4 -144 -29z"/>
<path d="M9872 3723 c2 -10 10 -18 18 -18 22 0 18 29 -3 33 -14 3 -18 -1 -15
-15z"/>
<path d="M9944 3729 c-9 -16 18 -30 33 -17 7 6 10 14 7 19 -7 13 -31 11 -40
-2z"/>
<path d="M10024 3729 c-8 -14 11 -33 25 -25 6 4 11 14 11 22 0 16 -26 19 -36
3z"/>
<path d="M6610 3660 c-25 -25 -25 -8 -4 -630 15 -473 16 -486 37 -507 20 -20
70 -27 711 -96 437 -48 697 -72 711 -67 24 9 50 61 42 83 -3 9 -16 12 -36 9
-30 -4 -36 2 -32 34 1 6 -14 19 -33 29 -33 18 -36 18 -54 2 -17 -16 -20 -15
-55 9 -55 37 -45 89 29 152 33 28 36 34 23 46 -8 8 -24 17 -36 21 -19 5 -23 2
-23 -14 0 -12 8 -21 23 -24 62 -12 -44 -4 -227 17 l-200 23 -48 -24 c-26 -13
-52 -23 -58 -23 -6 0 -10 48 -11 123 -1 67 -4 112 -7 99 -4 -13 -11 -23 -17
-22 -15 2 -23 -33 -13 -54 8 -15 12 -16 19 -5 5 9 9 -10 9 -51 l0 -64 -22 22
c-16 15 -25 40 -30 80 -4 36 -6 8 -4 -76 2 -81 -1 -129 -6 -124 -11 11 -27
220 -28 352 0 94 -10 124 -27 88 -21 -42 -21 -68 -4 -140 l18 -73 -31 -3 c-49
-4 -486 44 -497 55 -14 14 -34 634 -20 642 6 4 135 -7 286 -24 210 -23 278
-34 285 -45 5 -8 10 -37 10 -65 l0 -50 38 -3 c20 -1 183 -18 362 -37 178 -19
340 -35 358 -35 31 0 34 2 28 23 -3 12 -6 55 -6 95 0 90 -19 115 -95 125 -49
7 -1332 147 -1341 147 -2 0 -13 -9 -24 -20z m350 -896 c136 -15 173 -25 157
-40 -8 -8 -343 26 -375 37 -37 14 -15 32 32 25 22 -3 106 -13 186 -22z m-90
-59 c69 -8 128 -15 133 -15 4 0 7 -7 7 -15 0 -18 -8 -18 -125 -5 -139 16 -155
20 -155 35 0 18 -12 18 140 0z m48 -80 c20 -4 32 -12 32 -22 0 -12 -7 -14 -32
-10 -18 4 -66 9 -106 13 -70 6 -89 14 -78 32 5 8 102 1 184 -13z"/>
<path d="M9015 3586 c-51 -16 -85 -37 -85 -53 0 -17 21 -16 47 2 12 8 43 21
70 27 27 7 50 18 51 23 4 15 -38 16 -83 1z"/>
<path d="M9340 3580 c-9 -6 -10 -10 -3 -10 6 0 19 -3 27 -6 12 -5 15 -2 10 10
-7 18 -13 20 -34 6z"/>
<path d="M8793 3503 c-23 -5 -49 -30 -40 -39 3 -3 14 -1 25 5 12 6 33 11 47
11 17 0 25 5 23 13 -5 13 -22 17 -55 10z"/>
<path d="M9056 3502 c-3 -5 0 -17 7 -26 15 -21 49 -11 45 13 -3 18 -43 28 -52
13z"/>
<path d="M3760 3475 c-19 -23 -8 -50 22 -53 35 -4 56 29 32 52 -19 20 -38 20
-54 1z"/>
<path d="M8967 3483 c-10 -10 -8 -41 3 -48 19 -12 58 7 63 31 4 21 2 22 -11
12 -12 -10 -16 -10 -19 0 -5 13 -25 16 -36 5z"/>
<path d="M101 3448 c-52 -34 -72 -76 -72 -147 -1 -75 23 -127 71 -159 30 -20
45 -23 97 -20 52 3 68 9 92 32 17 16 35 42 40 57 10 29 10 29 -30 29 -27 0
-39 -4 -39 -14 0 -21 -40 -46 -73 -46 -18 0 -39 11 -59 30 -29 29 -30 34 -26
92 4 51 9 65 32 85 15 12 39 23 54 23 32 0 72 -25 72 -46 0 -10 12 -14 39 -14
40 0 40 0 30 29 -5 15 -23 41 -40 57 -24 23 -40 29 -92 32 -52 3 -67 0 -96
-20z"/>
<path d="M2327 3450 c-34 -27 -40 -61 -21 -110 16 -40 16 -41 -9 -60 -47 -37
-44 -101 7 -142 25 -21 102 -24 141 -6 19 9 28 9 37 0 7 -7 27 -12 46 -12 l34
0 -25 30 c-24 28 -25 32 -11 58 7 15 14 39 14 55 0 23 -4 27 -30 27 -25 0 -30
-4 -30 -24 0 -38 -13 -38 -43 -1 -27 33 -27 34 -7 45 28 15 53 67 46 96 -16
62 -96 86 -149 44z m87 -53 c8 -13 6 -22 -12 -39 -23 -23 -23 -23 -38 -4 -18
25 -18 31 2 51 19 18 33 16 48 -8z m-14 -174 l31 -38 -31 -9 c-26 -8 -35 -6
-52 12 -19 18 -20 25 -10 47 15 34 25 32 62 -12z"/>
<path d="M2710 3295 l0 -175 35 0 35 0 0 54 0 53 53 6 c67 7 100 22 120 57 35
59 11 141 -48 166 -20 8 -68 14 -115 14 l-80 0 0 -175z m165 101 c11 -8 18
-26 18 -46 0 -41 -24 -60 -75 -60 l-38 0 0 60 0 60 38 0 c21 0 47 -6 57 -14z"/>
<path d="M3020 3295 l0 -175 35 0 35 0 0 175 0 175 -35 0 -35 0 0 -175z"/>
<path d="M980 3410 c0 -23 -4 -30 -20 -30 -14 0 -20 -7 -20 -24 0 -15 7 -26
20 -29 18 -5 20 -14 20 -90 0 -69 3 -87 18 -100 22 -20 102 -24 101 -4 -1 23
-14 42 -29 42 -12 0 -16 17 -18 78 -3 77 -3 77 23 77 20 0 25 5 25 25 0 20 -5
25 -25 25 -21 0 -25 5 -25 30 0 28 -3 30 -35 30 -32 0 -35 -2 -35 -30z"/>
<path d="M8843 3414 c-8 -20 10 -36 30 -28 24 9 21 31 -4 37 -13 3 -22 0 -26
-9z"/>
<path d="M6967 3400 c-41 -13 -95 -56 -114 -93 -25 -49 -21 -136 8 -194 36
-70 93 -106 173 -111 57 -4 65 -7 76 -30 l12 -27 29 35 c16 19 32 46 35 60 3
14 15 44 26 68 23 48 22 142 -1 165 -10 9 -11 6 -5 -17 5 -21 4 -27 -5 -22 -6
4 -11 12 -11 17 0 33 -104 139 -136 139 -4 0 -4 -40 0 -90 4 -49 3 -90 -2 -90
-5 0 -7 -14 -4 -30 5 -32 -11 -60 -35 -60 -8 0 -25 11 -38 25 -19 18 -25 35
-25 68 0 55 17 78 48 66 12 -5 27 -19 32 -31 6 -16 9 3 7 67 -2 99 -7 104 -70
85z"/>
<path d="M9290 3389 c0 -5 5 -7 10 -4 6 3 10 8 10 11 0 2 -4 4 -10 4 -5 0 -10
-5 -10 -11z"/>
<path d="M390 3284 c0 -126 20 -163 89 -164 22 0 43 8 58 22 l23 21 0 -21 c0
-18 6 -22 35 -22 l35 0 0 130 0 130 -35 0 -35 0 0 -81 c0 -96 -10 -119 -50
-119 -40 0 -50 23 -50 119 l0 81 -35 0 -35 0 0 -96z"/>
<path d="M722 3364 c-31 -21 -41 -53 -30 -86 10 -27 32 -39 106 -58 32 -8 42
-15 40 -28 -4 -23 -76 -30 -84 -8 -7 17 -74 23 -74 7 0 -42 48 -71 115 -71 72
0 114 30 115 82 0 26 -39 68 -64 68 -6 0 -28 5 -48 11 -27 7 -38 15 -38 29 0
16 7 20 35 20 19 0 38 -6 42 -14 10 -18 63 -10 63 9 0 8 -12 23 -26 34 -33 26
-118 29 -152 5z"/>
<path d="M1192 3367 c-77 -43 -79 -185 -3 -230 33 -20 98 -22 135 -5 80 36 84
185 7 231 -34 20 -106 22 -139 4z m92 -43 c25 -10 39 -68 26 -109 -12 -36 -37
-50 -69 -40 -29 9 -45 67 -31 109 14 42 36 54 74 40z"/>
<path d="M1440 3250 l0 -130 35 0 35 0 0 89 c0 68 4 93 16 105 18 19 20 19 45
6 17 -9 19 -22 19 -105 l0 -95 35 0 35 0 0 89 c0 68 4 93 16 105 18 19 20 19
45 6 17 -9 19 -22 19 -105 l0 -95 40 0 40 0 0 93 c0 125 -17 161 -79 165 -33
3 -49 -2 -65 -18 l-23 -20 -18 20 c-25 27 -82 27 -112 -2 l-23 -21 0 21 c0 18
-6 22 -30 22 l-30 0 0 -130z"/>
<path d="M1911 3354 c-39 -33 -56 -90 -41 -143 16 -60 59 -91 126 -91 45 0 59
5 85 28 19 17 29 34 25 40 -10 17 -55 15 -72 -3 -29 -29 -83 -13 -97 28 -6 15
2 17 85 17 l91 0 -6 47 c-7 67 -48 103 -116 103 -39 0 -56 -6 -80 -26z m127
-51 c14 -23 14 -23 -42 -23 -39 0 -56 4 -56 13 0 41 72 48 98 10z"/>
<path d="M3152 3269 c3 -102 5 -112 27 -130 31 -25 82 -24 115 2 l26 20 0 -20
c0 -17 6 -21 35 -21 l35 0 0 130 0 130 -34 0 -34 0 -4 -90 c-3 -95 -10 -110
-53 -110 -37 0 -45 20 -45 112 l0 88 -36 0 -36 0 4 -111z"/>
<path d="M3484 3365 c-53 -36 -60 -164 -12 -212 32 -32 97 -36 128 -8 20 18
20 17 20 -16 0 -19 -5 -40 -12 -47 -17 -17 -73 -15 -88 3 -8 10 -21 13 -39 8
-33 -8 -33 -7 -25 -27 24 -62 190 -60 224 3 5 11 10 85 10 165 l0 146 -35 0
c-28 0 -35 -4 -35 -20 l0 -20 -20 20 c-24 24 -86 27 -116 5z m116 -55 c25 -25
27 -91 4 -114 -39 -39 -94 -3 -94 61 0 35 29 73 55 73 8 0 24 -9 35 -20z"/>
<path d="M3750 3250 l0 -130 35 0 35 0 0 130 0 130 -35 0 -35 0 0 -130z"/>
<path d="M3880 3250 l0 -130 35 0 35 0 0 85 c0 72 3 88 21 106 21 21 56 19 71
-5 4 -6 8 -50 8 -98 l0 -88 35 0 35 0 0 104 c0 89 -3 107 -21 130 -27 34 -91
37 -126 4 l-23 -21 0 21 c0 18 -6 22 -35 22 l-35 0 0 -130z"/>
<path d="M7338 3343 c6 -2 18 -2 25 0 6 3 1 5 -13 5 -14 0 -19 -2 -12 -5z"/>
<path d="M7418 3333 c12 -2 30 -2 40 0 9 3 -1 5 -23 4 -22 0 -30 -2 -17 -4z"/>
<path d="M7498 3323 c12 -2 32 -2 45 0 12 2 2 4 -23 4 -25 0 -35 -2 -22 -4z"/>
<path d="M7373 3310 c-27 -11 -27 -11 -11 -45 7 -17 20 -25 37 -26 25 -1 25
-2 -4 -8 -22 -5 -8 -9 59 -15 48 -4 91 -5 94 -2 3 3 -12 7 -34 7 -21 1 -29 4
-17 6 40 8 47 29 18 55 -31 27 -73 32 -71 8 1 -8 -6 -15 -14 -15 -8 0 -14 8
-14 17 1 11 -4 14 -14 11 -10 -4 -13 -2 -8 5 8 14 8 14 -21 2z m125 -33 c2
-10 -3 -17 -12 -17 -18 0 -29 16 -21 31 9 14 29 6 33 -14z"/>
<path d="M7603 3313 c9 -2 25 -2 35 0 9 3 1 5 -18 5 -19 0 -27 -2 -17 -5z"/>
<path d="M8976 3269 c6 -11 31 -12 37 -1 3 4 -6 8 -19 8 -13 1 -21 -2 -18 -7z"/>
<path d="M9036 3219 c-22 -12 -54 -21 -73 -22 -30 -1 -32 -3 -18 -16 13 -13
22 -13 62 -2 46 12 83 35 83 53 0 12 -11 9 -54 -13z"/>
<path d="M9228 3219 c-36 -58 -78 -139 -72 -139 4 0 25 17 48 38 22 20 57 50
76 65 19 15 27 24 16 21 -13 -5 -24 0 -36 16 l-17 23 -15 -24z"/>
<path d="M7353 3140 c0 -47 2 -66 4 -42 2 23 2 61 0 85 -2 23 -4 4 -4 -43z"/>
<path d="M7583 3203 c9 -2 23 -2 30 0 6 3 -1 5 -18 5 -16 0 -22 -2 -12 -5z"/>
<path d="M7382 3148 l2 -53 3 49 4 49 52 -6 c35 -4 47 -3 37 3 -8 5 -34 10
-57 10 l-43 0 2 -52z"/>
<path d="M7673 3193 c9 -2 23 -2 30 0 6 3 -1 5 -18 5 -16 0 -22 -2 -12 -5z"/>
<path d="M7508 3135 c4 -52 5 -55 30 -54 24 2 24 2 5 6 -20 4 -23 11 -23 49
l0 44 48 -5 c37 -3 41 -3 17 4 -16 5 -41 9 -55 10 -24 1 -25 -1 -22 -54z"/>
<path d="M7632 3144 c1 -34 2 -35 5 -9 4 29 6 30 46 27 23 -3 45 -10 49 -16 5
-7 8 -5 8 7 0 13 -8 17 -39 17 -22 0 -46 3 -55 6 -13 5 -16 -1 -14 -32z"/>
<path d="M7763 3115 c0 -27 2 -38 4 -22 2 15 2 37 0 50 -2 12 -4 0 -4 -28z"/>
<path d="M7788 3153 c7 -3 16 -2 19 1 4 3 -2 6 -13 5 -11 0 -14 -3 -6 -6z"/>
<path d="M7482 3110 c0 -19 2 -27 5 -17 2 9 2 25 0 35 -3 9 -5 1 -5 -18z"/>
<path d="M7418 3093 c12 -2 30 -2 40 0 9 3 -1 5 -23 4 -22 0 -30 -2 -17 -4z"/>
<path d="M7381 3028 c0 -32 2 -58 7 -58 4 0 6 19 4 43 -5 70 -10 76 -11 15z"/>
<path d="M7437 3063 c41 -4 42 -5 46 -46 l4 -42 1 48 2 47 -47 -2 -48 -1 42
-4z"/>
<path d="M7510 3006 l0 -54 55 -4 55 -3 -1 45 c-2 44 -2 44 -8 10 -6 -33 -9
-35 -48 -38 l-43 -4 0 45 c0 42 2 46 28 50 25 4 25 4 -5 6 l-33 1 0 -54z"/>
<path d="M7598 3043 c7 -3 16 -2 19 1 4 3 -2 6 -13 5 -11 0 -14 -3 -6 -6z"/>
<path d="M7708 3033 c6 -2 18 -2 25 0 6 3 1 5 -13 5 -14 0 -19 -2 -12 -5z"/>
<path d="M7642 2988 c-2 -40 1 -48 16 -48 11 0 13 3 5 8 -6 4 -13 25 -16 47
-4 40 -4 40 -5 -7z"/>
<path d="M7803 3023 c9 -2 23 -2 30 0 6 3 -1 5 -18 5 -16 0 -22 -2 -12 -5z"/>
<path d="M7890 2965 l0 -55 33 0 c17 0 42 -3 55 -6 21 -6 22 -4 22 50 0 52 -2
56 -22 55 -21 0 -22 -1 -4 -8 18 -7 18 -8 -5 -14 -40 -11 -69 -8 -69 7 0 8 10
17 23 19 19 4 18 4 -5 6 -27 1 -28 0 -28 -54z m100 -27 c0 -23 -3 -29 -9 -19
-8 12 -4 51 5 51 2 0 4 -15 4 -32z"/>
<path d="M8020 2956 c0 -41 4 -55 16 -60 24 -9 25 -5 18 58 -5 37 -11 56 -20
56 -10 0 -14 -15 -14 -54z"/>
<path d="M30 2816 l0 -176 83 0 c144 0 207 53 207 173 0 123 -52 169 -197 175
l-93 4 0 -176z m197 79 c33 -38 33 -123 -1 -161 -19 -23 -32 -28 -72 -28 l-49
-1 -3 99 c-1 55 0 106 3 114 9 25 95 9 122 -23z"/>
<path d="M1220 2815 l0 -175 35 0 35 0 0 175 0 175 -35 0 -35 0 0 -175z"/>
<path d="M7813 2973 c9 -2 23 -2 30 0 6 3 -1 5 -18 5 -16 0 -22 -2 -12 -5z"/>
<path d="M7438 2963 c6 -2 18 -2 25 0 6 3 1 5 -13 5 -14 0 -19 -2 -12 -5z"/>
<path d="M2990 2930 c0 -23 -4 -30 -20 -30 -15 0 -20 -7 -20 -25 0 -18 5 -25
20 -25 18 0 20 -7 20 -85 0 -102 15 -125 80 -125 33 0 40 3 40 20 0 12 -10 25
-25 32 -23 10 -25 16 -25 85 0 71 1 73 25 73 20 0 25 5 25 25 0 20 -5 25 -25
25 -21 0 -25 5 -25 30 0 28 -3 30 -35 30 -32 0 -35 -2 -35 -30z"/>
<path d="M7388 2896 c3 -40 8 -56 18 -56 8 0 14 5 14 10 0 6 7 10 15 10 8 0
15 -7 15 -15 0 -8 5 -15 10 -15 6 0 10 16 10 35 0 19 5 35 10 35 6 0 10 9 10
20 0 16 -7 20 -32 20 -18 0 -42 3 -53 6 -19 5 -20 1 -17 -50z m80 27 c-10 -2
-28 -2 -40 0 -13 2 -5 4 17 4 22 1 32 -1 23 -4z"/>
<path d="M7510 2930 c0 -6 7 -10 15 -10 8 0 15 2 15 4 0 2 -7 6 -15 10 -8 3
-15 1 -15 -4z"/>
<path d="M422 2884 c-69 -48 -69 -180 0 -228 60 -42 213 5 182 55 -8 14 -50
10 -64 -6 -17 -21 -63 -19 -83 3 -32 35 -21 42 67 42 47 0 88 4 91 10 12 20
-8 82 -37 110 -25 26 -37 30 -82 30 -30 0 -61 -6 -74 -16z m112 -50 c27 -26
18 -34 -39 -34 -30 0 -55 4 -55 9 0 18 31 41 55 41 13 0 31 -7 39 -16z"/>
<path d="M640 2898 c0 -2 20 -59 44 -128 l44 -125 42 0 42 0 44 125 c24 69 44
126 44 128 0 1 -17 2 -38 2 l-37 0 -19 -67 c-36 -129 -35 -129 -65 -28 l-26
90 -38 3 c-20 2 -37 2 -37 0z"/>
<path d="M979 2885 c-15 -8 -34 -30 -43 -49 -29 -62 -18 -127 30 -171 47 -43
165 -28 193 24 6 10 7 21 4 25 -12 12 -61 6 -73 -9 -19 -23 -66 -19 -84 7 -9
12 -16 26 -16 30 0 5 41 8 90 8 90 0 90 0 90 25 0 38 -25 90 -51 109 -29 20
-104 20 -140 1z m115 -57 c15 -24 5 -30 -53 -26 l-52 3 17 23 c19 27 71 27 88
0z"/>
<path d="M1398 2884 c-74 -40 -78 -178 -6 -228 14 -10 44 -16 76 -16 48 0 58
4 88 34 31 31 34 39 34 96 0 57 -3 65 -34 96 -30 30 -40 34 -82 34 -27 -1 -61
-7 -76 -16z m104 -51 c24 -22 24 -93 0 -123 -41 -50 -100 3 -88 78 9 61 49 81
88 45z"/>
<path d="M1640 2720 l0 -180 35 0 35 0 0 72 0 71 23 -21 c30 -28 85 -29 120
-1 53 41 58 152 10 209 -32 38 -94 42 -130 8 l-23 -21 0 21 c0 18 -6 22 -35
22 l-35 0 0 -180z m162 113 c39 -35 15 -143 -32 -143 -41 0 -72 78 -50 121 23
43 51 50 82 22z"/>
<path d="M1950 2770 l0 -130 35 0 35 0 0 89 c0 68 4 93 16 105 18 19 20 19 45
6 17 -9 19 -22 19 -105 l0 -95 35 0 35 0 0 89 c0 68 4 93 16 105 20 21 30 20
54 -4 17 -17 20 -33 20 -105 l0 -85 36 0 36 0 -4 109 c-3 90 -7 113 -22 130
-26 29 -96 29 -121 1 l-18 -20 -22 20 c-26 25 -81 26 -107 3 -17 -15 -18 -15
-18 0 0 13 -9 17 -35 17 l-35 0 0 -130z"/>
<path d="M2420 2873 c-36 -33 -51 -87 -39 -140 4 -22 21 -50 39 -65 25 -23 39
-28 85 -28 46 0 60 5 86 28 19 17 29 34 25 40 -10 17 -51 15 -66 -3 -25 -30
-100 -11 -100 25 0 18 7 20 85 20 l85 0 0 41 c0 33 -6 47 -34 75 -30 30 -40
34 -85 34 -41 0 -56 -5 -81 -27z m128 -50 c14 -23 14 -23 -42 -23 -39 0 -56 4
-56 13 0 41 72 48 98 10z"/>
<path d="M2670 2770 l0 -130 35 0 35 0 0 85 c0 72 3 88 21 106 21 21 56 19 71
-5 4 -6 8 -50 8 -98 l0 -88 35 0 35 0 0 104 c0 89 -3 107 -21 130 -27 34 -91
37 -126 4 l-23 -21 0 21 c0 18 -6 22 -35 22 l-35 0 0 -130z"/>
<path d="M7890 2855 c0 -45 17 -65 54 -65 14 0 88 -41 148 -82 37 -25 48 -23
48 10 0 50 -11 74 -31 69 -15 -4 -19 0 -19 19 0 14 -7 27 -15 30 -8 4 -15 15
-15 25 0 12 -7 19 -20 19 -11 0 -20 -7 -20 -16 0 -8 -5 -12 -10 -9 -6 4 -8 10
-5 15 6 10 -12 15 -77 24 l-38 5 0 -44z"/>
<path d="M7696 2833 c-3 -8 -6 -35 -6 -59 0 -40 2 -44 25 -44 24 0 25 3 25 58
0 50 -3 58 -19 59 -11 1 -22 -5 -25 -14z"/>
<path d="M7390 2775 c0 -25 3 -45 8 -45 4 0 6 18 4 39 -3 32 0 40 15 44 15 4
14 5 -4 6 -21 1 -23 -4 -23 -44z"/>
<path d="M7455 2812 c-17 -12 -18 -62 -1 -62 20 0 24 10 17 42 -4 16 -10 24
-16 20z"/>
<path d="M8292 2700 c0 -14 2 -19 5 -12 2 6 2 18 0 25 -3 6 -5 1 -5 -13z"/>
<path d="M8130 2673 c0 -7 104 -138 119 -150 24 -20 40 -15 47 15 3 15 7 32 9
37 1 6 4 15 5 20 2 6 17 19 34 30 36 22 47 18 -111 38 -57 8 -103 12 -103 10z"/>
<path d="M7892 2568 c-9 -9 -6 -15 16 -24 33 -14 59 0 41 22 -14 17 -41 18
-57 2z"/>
<path d="M32 2154 c-47 -33 -13 -114 43 -100 14 4 25 12 25 18 0 9 -3 9 -12 0
-7 -7 -18 -12 -24 -12 -19 0 -44 29 -44 50 0 19 25 50 40 50 5 0 15 -7 24 -15
22 -22 32 -18 11 5 -22 24 -34 25 -63 4z"/>
<path d="M693 2110 c0 -36 2 -50 4 -32 2 17 2 47 0 65 -2 17 -4 3 -4 -33z"/>
<path d="M872 2118 c-2 -49 1 -58 18 -63 45 -14 70 12 70 77 0 51 -19 39 -22
-14 -3 -49 -5 -53 -28 -53 -23 0 -25 5 -31 55 l-6 55 -1 -57z"/>
<path d="M1220 2151 c0 -14 -5 -18 -18 -14 -25 6 -44 -20 -40 -54 3 -24 8 -28
36 -29 l32 -1 0 59 c0 32 -2 58 -5 58 -3 0 -5 -9 -5 -19z m-10 -36 c16 -19 3
-57 -18 -53 -18 3 -27 30 -18 54 7 18 20 18 36 -1z"/>
<path d="M1313 2110 c0 -36 2 -50 4 -32 2 17 2 47 0 65 -2 17 -4 3 -4 -33z"/>
<path d="M1495 2161 c15 -6 21 -20 26 -62 l6 -54 1 57 c2 45 6 57 20 61 9 3
-3 5 -28 5 -31 0 -39 -2 -25 -7z"/>
<path d="M1593 2110 c0 -53 1 -57 6 -25 8 50 35 55 39 8 4 -37 22 -45 22 -10
0 32 -24 62 -43 54 -11 -4 -17 1 -20 16 -2 12 -4 -7 -4 -43z"/>
<path d="M1836 2154 c-18 -18 -21 -56 -6 -85 14 -26 55 -24 74 3 18 26 12 38
-17 37 -17 -1 -18 -2 -4 -6 23 -6 22 -30 -3 -38 -43 -14 -68 45 -34 79 19 20
23 20 46 -1 20 -18 25 -4 6 15 -17 17 -44 15 -62 -4z"/>
<path d="M2192 2110 c1 -54 2 -58 7 -25 4 26 11 40 21 40 10 0 17 -14 21 -40
l7 -40 -2 45 c-1 38 -4 45 -21 45 -11 0 -23 9 -27 20 -3 11 -6 -9 -6 -45z"/>
<path d="M2501 2108 c1 -35 4 -53 6 -40 3 13 12 22 23 22 19 0 50 25 50 40 0
17 -32 40 -56 40 -23 0 -24 -3 -23 -62z m43 46 c27 -10 20 -44 -9 -44 -18 0
-25 5 -25 18 0 29 9 36 34 26z"/>
<path d="M2904 2157 c-3 -8 -4 -21 -3 -28 1 -8 -1 -22 -5 -31 -14 -32 1 -49
39 -46 30 2 35 6 35 27 l0 25 -16 -22 c-16 -24 -39 -29 -50 -11 -12 20 13 34
33 18 17 -13 17 -13 4 4 -12 15 -12 20 -2 26 18 11 10 45 -12 49 -9 2 -20 -3
-23 -11z m31 -27 c-5 -8 -11 -8 -17 -2 -6 6 -7 16 -3 22 5 8 11 8 17 2 6 -6 7
-16 3 -22z"/>
<path d="M3044 2156 c-3 -7 -3 -35 -1 -62 3 -36 6 -44 11 -28 4 11 21 25 37
31 19 7 29 18 29 32 0 34 -65 57 -76 27z m56 -11 c15 -18 5 -35 -21 -35 -14 0
-19 7 -19 25 0 28 21 33 40 10z"/>
<path d="M3241 2115 c-1 -56 1 -61 21 -62 29 -3 48 14 48 42 0 27 -24 49 -44
42 -10 -4 -16 2 -19 16 -2 12 -5 -5 -6 -38z m54 -20 c0 -23 -4 -30 -20 -30
-21 0 -31 25 -21 51 11 28 41 12 41 -21z"/>
<path d="M2797 2148 c-9 -24 8 -91 23 -95 12 -4 12 -2 2 5 -8 5 -12 25 -11 50
3 42 -5 63 -14 40z"/>
<path d="M3330 2111 c0 -28 5 -53 10 -56 6 -4 10 15 10 49 0 31 -4 56 -10 56
-5 0 -10 -22 -10 -49z"/>
<path d="M3490 2111 c0 -59 17 -78 22 -24 4 53 31 51 39 -2 l7 -40 -2 45 c-1
40 -4 45 -23 44 -13 0 -23 5 -23 13 0 7 -4 13 -10 13 -5 0 -10 -22 -10 -49z"/>
<path d="M142 2128 c-18 -18 -15 -68 4 -75 37 -14 70 41 44 73 -15 17 -32 18
-48 2z m36 -7 c21 -13 11 -56 -13 -56 -20 0 -31 25 -21 51 6 16 15 17 34 5z"/>
<path d="M238 2132 c-13 -2 -18 -13 -18 -37 0 -47 18 -54 22 -8 4 53 32 52 37
-2 l5 -40 5 40 c4 26 11 40 21 40 10 0 17 -14 21 -40 l6 -40 1 35 c1 19 -2 40
-6 46 -7 10 -58 13 -94 6z"/>
<path d="M378 2132 c-13 -2 -18 -13 -18 -38 0 -43 18 -45 22 -2 4 45 28 49 28
4 0 -47 18 -56 22 -9 4 49 28 57 28 9 0 -19 5 -38 10 -41 6 -4 10 8 10 29 0
19 -6 38 -12 43 -14 8 -63 11 -90 5z"/>
<path d="M512 2128 c-15 -15 -15 -51 0 -66 18 -18 46 -14 58 7 14 27 13 37 -6
55 -19 19 -36 20 -52 4z m43 -34 c0 -22 -5 -29 -20 -29 -23 0 -32 30 -14 51
18 22 34 11 34 -22z"/>
<path d="M601 2090 l2 -45 6 40 c8 50 35 55 39 8 4 -41 22 -44 22 -4 0 33 -17
51 -48 48 -19 -1 -22 -7 -21 -47z"/>
<path d="M735 2120 c3 -14 8 -38 12 -54 4 -19 1 -31 -8 -37 -8 -5 -9 -9 -3 -9
6 0 16 6 21 13 14 19 43 100 38 105 -3 3 -10 -9 -16 -26 -14 -41 -23 -40 -37
1 -7 17 -9 21 -7 7z"/>
<path d="M992 2128 c-18 -18 -15 -27 13 -38 35 -13 33 -34 -2 -25 -21 5 -25 4
-17 -5 16 -16 48 -8 52 13 2 11 -6 20 -23 27 -30 11 -24 34 7 24 14 -4 18 -2
14 5 -9 14 -29 14 -44 -1z"/>
<path d="M1076 2124 c-19 -18 -20 -28 -6 -55 11 -20 45 -26 54 -10 4 5 -2 7
-12 4 -10 -2 -24 3 -31 11 -12 14 -9 16 23 16 39 0 41 2 26 31 -13 23 -33 24
-54 3z m42 -12 c2 -7 -6 -12 -17 -12 -21 0 -27 11 -14 24 9 9 26 2 31 -12z"/>
<path d="M1351 2091 l2 -46 6 40 c4 26 11 40 21 40 10 0 17 -14 21 -40 l7 -40
-2 45 c-1 42 -3 45 -28 46 -27 1 -28 -1 -27 -45z"/>
<path d="M1692 2128 c-27 -27 -7 -78 29 -78 10 0 20 4 24 9 3 6 -7 9 -21 8
-15 -1 -29 4 -31 11 -3 8 6 12 26 12 19 0 31 5 31 13 0 16 -20 37 -35 37 -6 0
-16 -5 -23 -12z m46 -15 c2 -8 -6 -13 -22 -13 -25 0 -33 10 -19 24 10 10 36 3
41 -11z"/>
<path d="M1942 2090 c1 -40 2 -41 5 -10 2 19 11 40 20 47 13 10 13 12 -6 10
-18 -1 -21 -7 -19 -47z"/>
<path d="M2005 2131 c-4 -7 2 -10 16 -8 12 1 24 -4 26 -10 3 -8 -4 -13 -15
-13 -11 0 -25 -6 -31 -14 -15 -17 6 -36 37 -33 20 1 23 6 20 42 -2 32 -7 41
-25 43 -11 2 -24 -2 -28 -7z m43 -53 c-7 -19 -38 -22 -38 -4 0 10 9 16 21 16
12 0 19 -5 17 -12z"/>
<path d="M2091 2075 c1 -33 4 -51 7 -40 5 13 16 20 32 20 20 0 26 6 28 28 4
36 -13 57 -44 55 -23 -2 -24 -6 -23 -63z m57 22 c2 -18 -2 -29 -13 -33 -24 -9
-39 10 -31 41 9 35 40 30 44 -8z"/>
<path d="M2283 2095 c0 -27 2 -38 4 -22 2 15 2 37 0 50 -2 12 -4 0 -4 -28z"/>
<path d="M2326 2119 c-25 -37 15 -92 45 -62 6 6 1 9 -13 9 -17 -1 -24 5 -26
23 -5 30 13 50 30 33 17 -17 33 -15 18 3 -17 21 -36 19 -54 -6z"/>
<path d="M2602 2090 c1 -40 2 -41 5 -10 2 19 11 40 20 47 13 10 13 12 -6 10
-18 -1 -21 -7 -19 -47z"/>
<path d="M2663 2095 c0 -27 2 -38 4 -22 2 15 2 37 0 50 -2 12 -4 0 -4 -28z"/>
<path d="M2701 2091 l2 -46 6 40 c4 26 11 40 21 40 10 0 17 -14 21 -40 l7 -40
-2 45 c-1 42 -3 45 -28 46 -27 1 -28 -1 -27 -45z"/>
<path d="M3141 2110 c-1 -46 9 -61 42 -58 25 2 27 5 26 48 -1 25 -3 36 -6 25
-2 -11 -6 -30 -9 -42 -2 -13 -11 -23 -19 -23 -8 0 -17 10 -19 23 -3 12 -7 31
-9 42 -3 11 -5 4 -6 -15z"/>
<path d="M3423 2133 c-22 -8 -14 -33 12 -43 33 -13 33 -34 -1 -27 -16 3 -22 1
-16 -5 15 -15 46 -5 50 15 2 11 -6 20 -23 27 -30 11 -24 34 7 24 14 -4 18 -2
14 5 -7 11 -22 13 -43 4z"/>
<path d="M3593 2095 c0 -27 2 -38 4 -22 2 15 2 37 0 50 -2 12 -4 0 -4 -28z"/>
<path d="M3631 2091 l2 -46 6 40 c4 26 11 40 21 40 10 0 17 -14 21 -40 l7 -40
-2 45 c-1 42 -3 45 -28 46 -27 1 -28 -1 -27 -45z"/>
<path d="M3732 2128 c-28 -28 -3 -85 32 -72 11 4 16 1 16 -11 0 -14 -7 -16
-30 -13 -19 3 -27 1 -21 -5 5 -5 19 -7 32 -5 22 3 24 9 27 58 3 52 1 56 -21
58 -13 1 -29 -4 -35 -10z m46 -27 c4 -26 -13 -42 -35 -34 -14 5 -18 45 -6 57
14 14 38 0 41 -23z"/>
<path d="M3373 2090 c0 -25 2 -35 4 -22 2 12 2 32 0 45 -2 12 -4 2 -4 -23z"/>
<path d="M2411 2044 c0 -11 3 -14 6 -6 3 7 2 16 -1 19 -3 4 -6 -2 -5 -13z"/>
<path d="M17 1893 c-11 -10 -8 -101 3 -108 6 -4 10 17 10 54 0 62 -1 66 -13
54z"/>
<path d="M210 1879 c0 -11 -5 -17 -10 -14 -16 10 -47 -4 -52 -23 -3 -10 -1
-28 3 -40 7 -17 15 -22 39 -20 30 2 30 3 30 60 0 32 -2 58 -5 58 -3 0 -5 -9
-5 -21z m-10 -34 c16 -19 3 -57 -18 -53 -18 3 -27 30 -18 54 7 18 20 18 36 -1z"/>
<path d="M540 1889 c0 -5 5 -7 10 -4 6 3 10 8 10 11 0 2 -4 4 -10 4 -5 0 -10
-5 -10 -11z"/>
<path d="M711 1838 c1 -35 4 -51 6 -35 3 21 10 27 31 28 l27 1 -25 7 c-37 10
-33 44 5 52 29 6 29 7 -7 8 l-38 1 1 -62z"/>
<path d="M1001 1838 c1 -35 4 -53 6 -40 3 13 12 22 23 22 19 0 50 25 50 40 0
17 -32 40 -56 40 -23 0 -24 -3 -23 -62z m43 46 c27 -10 20 -44 -9 -44 -20 0
-25 5 -25 25 0 26 7 29 34 19z"/>
<path d="M1595 1890 c3 -5 8 -10 11 -10 2 0 4 5 4 10 0 6 -5 10 -11 10 -5 0
-7 -4 -4 -10z"/>
<path d="M1936 1865 c-9 -21 -16 -41 -16 -46 0 -24 -18 -4 -29 32 -7 23 -15
38 -18 35 -7 -6 28 -106 38 -106 8 0 51 111 45 118 -3 2 -12 -13 -20 -33z"/>
<path d="M2283 1840 c0 -36 2 -50 4 -32 2 17 2 47 0 65 -2 17 -4 3 -4 -33z"/>
<path d="M2372 1843 l-2 -63 33 1 c29 2 30 2 5 6 -25 4 -27 8 -31 61 l-3 57
-2 -62z"/>
<path d="M2956 1892 c-17 -28 -44 -112 -36 -112 6 0 10 7 10 15 0 21 50 19 66
-2 8 -11 5 7 -7 45 -21 63 -24 68 -33 54z m17 -42 c4 -15 0 -20 -14 -20 -17 0
-18 3 -9 20 6 11 12 20 14 20 2 0 6 -9 9 -20z"/>
<path d="M3180 1880 c0 -13 -5 -18 -15 -14 -21 8 -45 -14 -45 -41 0 -28 19
-45 48 -42 20 1 22 7 22 59 0 32 -2 58 -5 58 -3 0 -5 -9 -5 -20z m-5 -55 c0
-23 -4 -30 -20 -30 -21 0 -31 25 -21 51 11 28 41 12 41 -21z"/>
<path d="M9245 1884 c-203 -18 -298 -32 -307 -47 -5 -6 -6 -21 -3 -32 3 -11
19 -96 36 -190 34 -187 34 -186 -6 -410 l-27 -149 28 -143 28 -143 83 0 83 0
0 28 c0 28 -17 186 -25 235 -4 27 -4 27 56 27 l61 0 -7 30 c-8 38 6 39 35 3
16 -20 20 -22 15 -8 -23 67 -26 89 -15 140 12 57 24 69 35 35 7 -23 25 -27 25
-5 0 26 19 16 34 -17 l13 -33 8 27 c4 15 13 32 20 38 11 9 15 4 20 -23 4 -20
4 -44 1 -55 -6 -19 -5 -20 18 -9 14 7 26 15 26 20 0 4 5 7 10 7 13 0 13 -36
-1 -63 -6 -14 0 -10 18 11 15 18 32 32 37 32 8 0 4 -41 -10 -102 -6 -28 -6
-28 45 -28 50 0 50 0 46 -27 -6 -36 -35 -285 -35 -301 0 -9 27 -12 95 -12 l95
0 0 59 c0 48 3 60 18 64 15 4 15 5 -2 6 -18 1 -18 8 -12 142 6 103 14 160 29
208 17 52 22 90 22 181 -1 110 -3 121 -52 275 -28 88 -54 173 -58 190 -4 16
-11 36 -17 42 -14 17 -259 15 -463 -3z"/>
<path d="M428 1878 c-8 -24 8 -92 22 -96 12 -4 13 -2 3 9 -15 15 -17 51 -4 65
6 5 4 14 -4 21 -10 9 -15 9 -17 1z"/>
<path d="M2818 1878 c-8 -24 8 -92 22 -96 12 -4 13 -2 3 9 -15 15 -17 51 -4
65 6 5 4 14 -4 21 -10 9 -15 9 -17 1z"/>
<path d="M73 1863 c-8 -3 -12 -21 -12 -46 l2 -42 6 40 c4 26 11 40 21 40 10 0
17 -14 21 -40 l7 -40 -2 45 c-1 45 -13 56 -43 43z"/>
<path d="M254 1830 c1 -43 2 -45 31 -45 27 0 30 3 33 38 2 20 -1 37 -7 37 -5
0 -11 -15 -13 -32 -4 -48 -31 -43 -39 7 l-7 40 2 -45z"/>
<path d="M353 1863 c-22 -8 -14 -33 12 -43 33 -13 33 -34 -1 -27 -16 3 -22 1
-16 -5 15 -15 46 -5 50 15 2 11 -6 20 -23 27 -30 11 -24 34 7 24 14 -4 18 -2
14 5 -7 11 -22 13 -43 4z"/>
<path d="M498 1863 c-13 -3 -18 -15 -18 -44 0 -24 4 -38 10 -34 6 3 10 19 10
34 0 15 5 32 12 39 7 7 10 11 8 11 -3 -1 -13 -3 -22 -6z"/>
<path d="M543 1825 c0 -27 2 -38 4 -22 2 15 2 37 0 50 -2 12 -4 0 -4 -28z"/>
<path d="M593 1863 c-22 -8 -14 -33 12 -43 33 -13 33 -34 -1 -27 -16 3 -22 1
-16 -5 15 -15 46 -5 50 15 2 11 -6 20 -23 27 -30 11 -24 34 7 24 14 -4 18 -2
14 5 -7 11 -22 13 -43 4z"/>
<path d="M806 1854 c-19 -18 -20 -28 -6 -55 20 -36 70 -17 70 26 0 41 -36 58
-64 29z m44 -9 c14 -17 4 -55 -15 -55 -21 0 -35 31 -24 52 12 22 23 23 39 3z"/>
<path d="M891 1820 c2 -34 3 -37 6 -15 3 17 11 37 18 45 12 14 12 16 -5 16
-17 0 -20 -7 -19 -46z"/>
<path d="M1102 1820 c1 -40 2 -41 5 -10 2 19 11 40 20 47 13 10 13 12 -6 10
-18 -1 -21 -7 -19 -47z"/>
<path d="M1162 1858 c-15 -15 -15 -51 0 -66 14 -14 44 -16 52 -3 3 4 -5 6 -18
4 -15 -3 -25 1 -29 11 -5 13 1 16 28 16 38 0 40 2 25 31 -12 21 -40 25 -58 7z
m46 -16 c2 -7 -7 -12 -23 -12 -24 0 -26 2 -15 15 14 17 31 16 38 -3z"/>
<path d="M1241 1863 c0 -4 9 -26 19 -48 l18 -40 16 37 c9 21 16 43 15 50 0 7
-8 -5 -18 -27 l-18 -40 -7 32 c-7 29 -27 58 -25 36z"/>
<path d="M1382 1858 c-27 -27 -7 -78 29 -78 10 0 20 4 24 9 3 6 -7 9 -21 8
-15 -1 -29 4 -31 11 -3 8 6 12 26 12 24 0 31 4 31 19 0 28 -37 40 -58 19z m46
-16 c2 -7 -7 -12 -23 -12 -24 0 -26 2 -15 15 14 17 31 16 38 -3z"/>
<path d="M1466 1850 c4 -14 11 -36 16 -50 l10 -25 13 35 c13 37 12 38 32 -20
4 -11 9 -6 19 15 7 17 13 37 13 45 0 8 -6 2 -13 -14 l-13 -29 -11 32 c-14 39
-19 39 -30 -1 l-9 -33 -16 35 c-11 22 -14 26 -11 10z"/>
<path d="M1603 1825 c0 -27 2 -38 4 -22 2 15 2 37 0 50 -2 12 -4 0 -4 -28z"/>
<path d="M1648 1863 c-14 -3 -18 -15 -18 -46 0 -46 16 -40 22 8 5 46 32 39 39
-10 l7 -40 -2 45 c-1 46 -10 54 -48 43z"/>
<path d="M1735 1853 c-19 -19 -19 -38 1 -58 10 -10 24 -13 36 -9 15 4 19 2 16
-7 -3 -8 -17 -14 -31 -14 -15 1 -23 -3 -18 -8 5 -5 19 -7 32 -5 22 3 24 9 27
58 3 53 2 55 -23 56 -14 1 -32 -5 -40 -13z m49 -16 c8 -12 7 -21 -6 -33 -20
-20 -38 -11 -38 20 0 39 23 46 44 13z"/>
<path d="M1983 1825 c0 -27 2 -38 4 -22 2 15 2 37 0 50 -2 12 -4 0 -4 -28z"/>
<path d="M2021 1856 c-12 -15 -2 -27 32 -39 28 -10 9 -30 -22 -22 -19 5 -23 4
-15 -5 16 -16 59 -8 59 10 0 8 -10 19 -22 25 -29 12 -31 39 -3 32 11 -3 18 -1
14 4 -8 13 -30 11 -43 -5z"/>
<path d="M2104 1830 c1 -44 2 -45 34 -45 31 -1 32 1 32 37 0 46 -18 51 -22 6
-4 -48 -31 -43 -39 7 l-7 40 2 -45z"/>
<path d="M2206 1861 c-4 -5 3 -7 14 -4 14 4 20 0 20 -10 0 -9 -10 -17 -22 -19
-15 -2 -23 -10 -23 -23 0 -16 7 -20 33 -21 30 -1 32 1 32 31 0 43 -37 74 -54
46z m34 -56 c0 -8 -9 -15 -20 -15 -11 0 -20 7 -20 15 0 8 9 15 20 15 11 0 20
-7 20 -15z"/>
<path d="M2465 1861 c-4 -7 2 -10 16 -8 12 1 24 -3 26 -10 2 -7 -8 -13 -24
-15 -20 -2 -28 -9 -28 -23 0 -16 7 -20 33 -21 33 -1 33 0 30 40 -2 33 -7 42
-25 44 -11 2 -24 -2 -28 -7z m45 -50 c0 -6 -5 -13 -10 -16 -15 -9 -43 3 -35
15 8 13 45 13 45 1z"/>
<path d="M2541 1864 c-1 -6 6 -29 15 -50 15 -35 15 -39 -2 -51 -15 -11 -16
-13 -2 -13 11 0 24 20 38 56 11 31 18 59 16 62 -6 5 -25 -41 -27 -61 0 -7 -9
6 -19 28 -10 22 -19 35 -19 29z"/>
<path d="M2636 1849 c-28 -40 13 -89 49 -59 28 23 12 80 -21 80 -7 0 -20 -10
-28 -21z m42 2 c21 -13 11 -56 -13 -56 -20 0 -31 25 -21 51 6 16 15 17 34 5z"/>
<path d="M2778 1833 c-4 -49 -32 -53 -36 -5 -4 40 -22 43 -22 3 0 -33 17 -51
48 -48 19 1 22 7 22 44 0 53 -8 56 -12 6z"/>
<path d="M3031 1821 l2 -46 6 40 c4 26 11 40 21 40 10 0 17 -14 21 -40 4 -32
7 -36 14 -21 14 31 -7 71 -38 72 -26 1 -27 -1 -26 -45z"/>
<path d="M1330 1826 c0 -19 5 -38 10 -41 6 -4 10 10 10 34 0 23 -4 41 -10 41
-5 0 -10 -15 -10 -34z"/>
<path d="M18 1614 c-12 -11 -10 -102 2 -109 6 -4 10 11 11 37 l0 43 17 -42 c9
-24 19 -43 23 -43 4 0 15 19 25 43 l18 42 7 -45 c6 -44 6 -43 7 18 1 34 -2 62
-7 62 -5 0 -17 -20 -27 -45 -9 -25 -20 -45 -24 -45 -3 0 -15 21 -26 46 -10 25
-22 43 -26 38z"/>
<path d="M343 1560 c0 -36 2 -55 4 -42 5 27 19 28 33 2 6 -11 16 -20 22 -20 6
0 3 9 -8 21 -15 16 -16 24 -6 39 19 31 14 35 -12 11 l-25 -23 -4 38 c-2 23 -4
12 -4 -26z"/>
<path d="M9925 1604 c-11 -8 -39 -20 -62 -26 l-42 -10 14 -29 c9 -17 15 -57
15 -104 0 -42 5 -85 11 -96 6 -11 11 -33 11 -49 1 -20 7 -30 21 -34 29 -7 31
-4 56 64 12 34 36 77 54 96 30 35 33 36 80 30 70 -10 123 -37 119 -61 -1 -11
-14 -110 -27 -220 -14 -110 -30 -214 -36 -232 -15 -47 -72 -70 -210 -87 l-114
-14 88 -1 87 -1 0 -55 0 -55 65 0 64 0 7 35 c3 19 4 49 2 66 -4 27 0 34 29 51
18 11 38 28 42 37 8 13 36 225 54 406 6 56 -6 81 -50 104 -21 10 -48 33 -60
49 -25 33 -121 110 -168 135 -27 13 -33 13 -50 1z m25 -141 c0 -10 -33 -127
-37 -133 -7 -8 -23 24 -23 48 0 35 27 92 44 92 9 0 16 -3 16 -7z"/>
<path d="M168 1579 c-36 -21 -12 -85 28 -77 28 5 40 33 26 62 -12 28 -26 32
-54 15z m42 -14 c16 -19 3 -55 -20 -55 -23 0 -36 36 -20 55 7 8 16 15 20 15 4
0 13 -7 20 -15z"/>
<path d="M260 1576 c-25 -31 13 -97 40 -70 8 8 4 10 -12 10 -18 -1 -24 5 -26
27 -4 32 20 46 46 26 15 -13 16 -12 3 4 -16 21 -35 22 -51 3z"/>
<path d="M434 1550 c1 -42 3 -45 29 -46 26 -1 27 1 26 45 l-2 46 -6 -40 c-4
-26 -11 -40 -21 -40 -10 0 -17 14 -21 40 l-7 40 2 -45z"/>
<path d="M521 1525 c1 -33 4 -51 6 -39 3 16 10 20 28 16 19 -3 27 1 33 19 9
23 5 58 -7 60 -3 1 -18 2 -33 3 -28 2 -28 1 -27 -59z m54 19 c0 -19 -6 -30
-17 -32 -21 -4 -34 34 -17 54 18 22 34 11 34 -22z"/>
<path d="M627 1583 c-15 -14 -6 -34 19 -43 29 -12 22 -34 -9 -26 -14 3 -17 2
-10 -5 17 -17 48 -6 48 16 0 13 -8 21 -22 23 -13 2 -23 10 -23 19 0 10 6 14
20 10 11 -3 18 -1 14 4 -6 11 -28 12 -37 2z"/>
<path d="M9378 1073 c7 -3 16 -2 19 1 4 3 -2 6 -13 5 -11 0 -14 -3 -6 -6z"/>
<path d="M7298 883 c57 -2 147 -2 200 0 53 1 7 3 -103 3 -110 0 -154 -2 -97
-3z"/>
<path d="M7588 813 c12 -2 32 -2 45 0 12 2 2 4 -23 4 -25 0 -35 -2 -22 -4z"/>
<path d="M7917 775 c-18 -13 -18 -14 2 -25 12 -6 19 -15 16 -21 -4 -5 85 -8
237 -7 209 2 225 3 113 8 -107 5 -116 6 -55 9 41 2 86 4 100 5 14 1 58 3 99 4
138 4 67 10 -199 17 -145 4 -272 10 -280 15 -9 5 -22 3 -33 -5z"/>
<path d="M7653 723 c9 -2 25 -2 35 0 9 3 1 5 -18 5 -19 0 -27 -2 -17 -5z"/>
<path d="M9033 723 c26 -2 68 -2 95 0 26 2 4 3 -48 3 -52 0 -74 -1 -47 -3z"/>
<path d="M9470 696 c-29 -10 -36 -18 -38 -44 -2 -18 0 -32 5 -32 13 0 227 72
235 79 13 12 -167 10 -202 -3z"/>
<path d="M9815 700 c-91 -6 -127 -13 -207 -43 -114 -42 -118 -44 -118 -63 0
-12 38 -14 248 -13 l247 0 -55 20 c-78 28 -82 35 -35 75 22 18 38 33 35 32 -3
-1 -54 -5 -115 -8z"/>
<path d="M9963 689 c-50 -32 -43 -54 25 -80 56 -23 204 -36 292 -27 l35 4 -67
33 c-64 31 -81 52 -58 66 24 15 3 20 -93 23 -90 2 -106 0 -134 -19z"/>
<path d="M10252 696 c-44 -24 -35 -42 46 -86 45 -24 67 -30 119 -30 55 0 63 2
63 18 0 11 -9 27 -20 37 -25 22 -25 41 -2 54 22 13 16 14 -96 15 -51 1 -101
-3 -110 -8z"/>
</g>
</svg>
